<svg width="198" height="63" viewBox="0 0 198 63" fill="none" xmlns="http://www.w3.org/2000/svg">
<path d="M81.6945 53.7475C74.545 53.7475 70.8812 49.6364 70.6953 41.5053C70.6953 33.4197 74.3137 29.3693 81.5996 29.2214C87.3154 29.2214 90.7024 31.7662 91.7416 36.905H85.2711C84.5542 35.297 83.3026 34.4475 81.4252 34.4475C78.2999 34.4475 76.7373 36.814 76.7373 41.5053C76.7373 46.1966 78.3871 48.5632 81.6945 48.5176C82.3786 48.5156 83.0539 48.3626 83.6722 48.0695C84.2904 47.7765 84.8363 47.3507 85.2711 46.8224C85.5299 46.5504 85.8419 46.3346 86.1877 46.1884C86.5336 46.0423 86.9058 45.9689 87.2813 45.9729H91.7492C90.6758 50.778 87.1902 53.8613 81.6945 53.7475Z" fill="#F16127"/>
<path d="M101.454 33.8012H100.829V46.889C100.829 47.8751 101.409 48.406 102.569 48.406H104.401V52.9191C102.32 53.1041 100.226 53.0888 98.147 52.8736C95.913 52.6498 94.8397 51.2655 94.8852 48.6298V22.8105H97.9687C99.5314 22.8105 100.829 24.2403 100.829 25.8028V29.5574H104.401V30.8544C104.409 31.2435 104.338 31.6302 104.193 31.9912C104.047 32.3522 103.831 32.6801 103.555 32.9553C103.28 33.2305 102.952 33.4473 102.591 33.5926C102.23 33.738 101.843 33.8089 101.454 33.8012V33.8012Z" fill="#932682"/>
<path d="M111.005 57.392C114.267 57.392 115.428 55.784 114.491 52.6552L106.446 29.5586H113.213L117.904 45.9538L122.016 31.6597C122.372 30.2716 123.309 29.5586 124.83 29.5586H128.983L119.645 57.2138C118.215 61.0974 116.785 62.4399 111.874 62.4399C110.357 62.4399 109.549 62.3944 109.371 62.2617V57.392H111.005Z" fill="#35BA9B"/>
<path d="M154.248 29.5578L145.903 53.1889H139.592L131.282 29.5578H137.859L142.638 46.131L146.749 31.6588C146.912 31.0247 147.292 30.4676 147.823 30.0839C148.353 29.7002 149.001 29.5141 149.655 29.5578H154.248Z" fill="#407B3A"/>
<path d="M162.603 29.473L162.319 29.3289H149.287V29.3706C148.697 29.4104 148.134 29.6347 147.679 30.0117C147.224 30.3888 146.898 30.8995 146.749 31.4716L139.869 53.2785H146.34L153.755 32.3932L162.603 29.473Z" fill="#B3D334"/>
<path d="M73.3699 10.3562L70.3356 6.91635L67.5176 10.4093L69.5619 1L73.3699 10.3562Z" fill="#F04D32"/>
<path d="M42.0361 43.2756C43.3219 42.6347 44.7138 41.9027 46.1475 41.0684C46.8681 40.6588 47.5888 40.2037 48.3359 39.7524C48.4573 39.6689 48.5901 39.5893 48.7152 39.5059L51.3436 31.4013L53.5927 24.4041L56.5549 33.5061V33.5516C56.7635 33.3696 56.9721 33.1724 57.1769 33.0017L58.2275 31.9967L58.7509 31.4923L59.2554 30.9651L60.2643 29.907C60.5942 29.5505 60.9014 29.1789 61.2238 28.811C61.4324 28.5569 61.6562 28.3104 61.8724 28.0525L57.9203 17.0542H51.9391C50.1135 17.0542 48.9327 17.8569 48.3966 19.4624L39.457 44.4703C40.2649 44.1251 41.1221 43.7231 42.0361 43.2756Z" fill="#ED2224"/>
<path d="M64.5002 36.0386L64.0413 36.7289C63.7341 37.1878 63.423 37.6504 63.112 38.1055C62.4748 39.0044 61.8263 39.8994 61.155 40.7603C60.6315 41.4126 60.1119 42.0687 59.5771 42.702L60.6809 46.066H60.7226L62.9452 52.9304L63.112 53.4386L63.1386 53.5182H71.02L64.6633 35.7883L64.5002 36.0386Z" fill="#ED2224"/>
<path d="M70.5872 9.83614C70.5872 9.18004 70.6061 8.55428 70.5455 7.97403C70.4203 6.81352 70.3748 5.79713 70.2231 4.97416L69.7452 2.39526C69.7452 2.39526 69.859 3.3396 70.06 4.99692C70.1586 5.82368 70.1358 6.84007 70.1889 7.99678C70.2155 8.57703 70.132 9.199 70.1093 9.84752C70.0931 10.5334 70.0322 11.2175 69.9272 11.8955C69.8134 12.6047 69.7414 13.348 69.5821 14.1103C69.4228 14.8726 69.2028 15.6538 69.0283 16.4616C68.7742 17.2581 68.5087 18.0772 68.2432 18.9116C67.9044 19.7308 67.5605 20.5677 67.2116 21.4222C66.783 22.2528 66.3923 23.1099 65.9258 23.9518L65.1673 25.2147C64.9282 25.6469 64.6662 26.066 64.3821 26.47C63.8208 27.3006 63.2784 28.1387 62.6337 28.9428C62.3189 29.3485 62.0192 29.7619 61.6968 30.1601L60.6879 31.3434C60.0394 32.1474 59.2808 32.887 58.5791 33.653C57.8775 34.4191 57.0924 35.1283 56.33 35.8375C55.5677 36.5467 54.7901 37.2407 53.9785 37.8931C53.5764 38.2192 53.1896 38.5567 52.7913 38.8753C52.3931 39.1939 51.9834 39.5049 51.5776 39.8121C50.7925 40.4378 49.9543 41.0067 49.173 41.5869C48.3917 42.1672 47.5762 42.7019 46.7797 43.2025C45.2057 44.2341 43.6658 45.1557 42.2283 45.9786C40.7909 46.8016 39.4558 47.4957 38.2421 48.1138L36.835 52.1794C38.0638 51.5498 39.691 50.7193 40.0285 50.5259C41.2574 49.8394 42.6076 49.0354 44.0603 48.1252C45.5129 47.215 47.0414 46.1872 48.6116 45.0495C49.4081 44.492 50.1781 43.8776 50.9935 43.2746C51.809 42.6716 52.5979 42.0155 53.3792 41.3291L54.5739 40.3089C54.9532 39.9638 55.3325 39.5997 55.7421 39.2432C56.5386 38.5378 57.2782 37.7717 58.0444 37.017C58.8105 36.2623 59.5198 35.4583 60.2366 34.6618C60.9534 33.8654 61.6513 33.0424 62.2771 32.1891L63.2405 30.9224C63.5477 30.4977 63.836 30.0577 64.1318 29.6292C64.7425 28.7721 65.2697 27.8809 65.7779 27.0048C66.0453 26.5769 66.2896 26.1351 66.5099 25.6812C66.7413 25.2375 66.9651 24.7938 67.1926 24.3576C67.6174 23.474 67.9701 22.5751 68.3494 21.7029C68.6566 20.8192 68.9525 19.9469 69.2483 19.0936L69.8931 16.5678C70.0372 15.7411 70.175 14.9371 70.3065 14.1558C70.4203 13.3973 70.4431 12.6388 70.5189 11.9031C70.5842 11.2161 70.607 10.5259 70.5872 9.83614V9.83614Z" fill="#F04D32"/>
<path d="M71.1111 12.9738C71.0987 12.2861 71.0455 11.5997 70.9518 10.9183C70.8646 10.266 70.8381 9.64399 70.7167 9.07512C70.4664 7.93737 70.3184 6.92857 70.0833 6.12077C69.6092 4.51275 69.3247 3.59497 69.3247 3.59497C69.3247 3.59497 69.5371 4.52413 69.905 6.15111C70.0947 6.96649 70.1743 7.97909 70.3526 9.12063C70.4322 9.69329 70.4209 10.3153 70.4664 10.96C70.5161 11.6402 70.5237 12.3229 70.4891 13.0041C70.4512 13.7171 70.455 14.4605 70.3753 15.2227C70.2957 15.985 70.1743 16.7852 70.0681 17.5968C69.8937 18.4034 69.7154 19.2327 69.5333 20.0847C69.2792 20.9191 69.0213 21.7762 68.7748 22.6446C68.4334 23.5017 68.13 24.3778 67.7507 25.2463C67.5459 25.6786 67.3411 26.1148 67.1401 26.5509C66.9444 26.9964 66.7241 27.4307 66.4801 27.8517C66.006 28.7126 65.5471 29.5849 64.9858 30.4268C64.7165 30.8478 64.4586 31.2801 64.1741 31.6973L63.2904 32.945C62.7215 33.7832 62.0388 34.572 61.4168 35.3798C60.7948 36.1876 60.0817 36.9499 59.3914 37.7084C58.7011 38.4669 57.9919 39.2254 57.2523 39.9118C56.873 40.2645 56.5317 40.6248 56.1638 40.9699L55.0449 41.9901C54.3243 42.669 53.5278 43.2872 52.8185 43.9205C52.1093 44.5538 51.3355 45.1341 50.5884 45.6916C49.1281 46.8293 47.6793 47.8419 46.3291 48.7635C44.9788 49.6851 43.7007 50.4853 42.5363 51.168C41.3719 51.8506 40.363 52.4308 39.5248 52.9011L36.3313 54.566C35.8003 56.2802 35.3262 57.801 35 58.8439C35.861 58.4116 37.2757 57.7062 39.4982 56.5684C39.8472 56.3864 40.674 55.901 41.5388 55.3776C42.4035 54.8542 43.4352 54.2095 44.573 53.4359C45.7108 52.6622 47.0004 51.7709 48.3658 50.7811C49.7312 49.7913 51.1459 48.6497 52.5985 47.4096C53.3381 46.8028 54.0474 46.1429 54.7946 45.483C55.5417 44.8231 56.2738 44.1253 56.983 43.3896L58.0715 42.2897C58.4508 41.9105 58.777 41.5312 59.1335 41.152C59.8579 40.3935 60.5179 39.5857 61.2082 38.7817C61.8985 37.9777 62.5205 37.1319 63.1577 36.29C63.7949 35.4481 64.4093 34.5872 64.9441 33.696L65.7785 32.3724C66.0402 31.9287 66.2829 31.4736 66.537 31.026C67.0604 30.1348 67.4814 29.217 67.9138 28.3106C68.1376 27.8631 68.331 27.4042 68.5093 26.9453L69.0517 25.58C69.3854 24.6736 69.6433 23.7596 69.9354 22.876C70.1478 21.9734 70.3602 21.0897 70.565 20.2212C70.6939 19.349 70.8229 18.4957 70.9443 17.6689C71.0011 16.8383 71.0505 16.0305 71.1036 15.2455C71.1567 14.4605 71.1111 13.6944 71.1111 12.9738Z" fill="#F04D32"/>
<path d="M152.034 22.5426H150.358V27H149.673V22.5426H148V22H152.034V22.5426Z" fill="black"/>
<path d="M153.697 22L155.402 26.0797L157.108 22H158V27H157.312V25.0529L157.377 22.9512L155.664 27H155.137L153.428 22.9615L153.496 25.0529V27H152.808V22H153.697Z" fill="black"/>
</svg>
